<svg width="1094" height="292" fill="none" xmlns="http://www.w3.org/2000/svg"><g opacity=".6" fill="#3A3841"><path d="m490.129 201.612 12.057-94.339 11.958 90.955-24.015 3.384Zm31.288-127.214-36.164 5.093-28.002 187.63L482 263.638l4.678-36.605 30.818-4.341 4.547 35.309 26.692-3.756-27.318-179.847ZM594.304 142.854l.099-52.493 12.131-1.709c9.463-1.328 13.581 3.863 13.556 16.986l-.025 14.172c-.024 14.7-6.102 20.279-16.051 21.682l-9.71 1.362Zm13.004-80.555-39.548 5.57-.338 183.735 26.692-3.755.149-78.74 9.215-1.296c12.14-1.708 16.736 3.153 16.703 20.213l-.066 33.593c-.025 14.955.947 17.712 2.388 22.227l27.178-3.83c-2.66-6.446-2.89-12.975-2.874-21.897l.058-32.288c.041-20.733-4.308-33.766-17.641-36.349v-.528c11.9-6.925 17.509-19.784 17.542-38.685l.025-11.283c.049-28.351-11.819-40.583-39.483-36.687ZM698.157 128.22l.099-52.493 12.14-1.708c9.463-1.33 13.573 3.862 13.548 16.986l-.025 14.171c-.025 14.7-6.103 20.279-16.043 21.682l-9.719 1.362Zm13.013-80.547-39.557 5.571-.337 183.734 26.692-3.755.148-78.74 9.224-1.296c12.132-1.708 16.736 3.153 16.703 20.214l-.066 33.592c-.025 14.956.939 17.712 2.388 22.227l27.178-3.83c-2.66-6.446-2.89-12.974-2.874-21.897l.058-32.288c.041-20.733-4.308-33.765-17.641-36.349v-.528c11.9-6.925 17.501-19.776 17.534-38.685l.024-11.283c.05-28.35-11.81-40.583-39.474-36.687ZM802.168 34.855l-26.692 3.764-.338 183.726 26.692-3.755.338-183.735ZM907.966 19.957l-24.51 3.45-17.987 146.857-17.444-141.863-26.931 3.788L846.469 212.3l35.438-4.993 26.059-187.35ZM945.34 137.497l12.065-94.339 11.959 90.955-24.024 3.384Zm31.288-127.213-36.156 5.092-28.002 187.631 24.749-3.483 4.678-36.605 30.819-4.342 4.546 35.309 26.688-3.755-27.322-179.847ZM1049.67 0l-26.69 3.755-.35 183.735 70.62-9.946.05-26.247-43.93 6.182.3-157.479Z"/></g><path d="m465.877 225.863 12.058-94.339 11.958 90.955-24.016 3.384ZM497.165 98.65l-36.163 5.092L433 291.372l24.749-3.483 4.678-36.605 30.818-4.341 4.546 35.309 26.693-3.755L497.165 98.65ZM570.052 167.105l.099-52.493 12.132-1.708c9.463-1.329 13.58 3.862 13.556 16.986l-.025 14.171c-.025 14.7-6.103 20.279-16.052 21.683l-9.71 1.361Zm13.005-80.555-39.549 5.571-.337 183.734 26.692-3.755.148-78.74 9.216-1.296c12.14-1.708 16.735 3.153 16.702 20.214l-.066 33.592c-.024 14.955.948 17.712 2.389 22.227l27.178-3.83c-2.66-6.446-2.891-12.974-2.874-21.897l.057-32.288c.042-20.733-4.307-33.766-17.641-36.349v-.528c11.901-6.925 17.51-19.784 17.543-38.685l.024-11.283c.05-28.35-11.818-40.583-39.482-36.687ZM673.906 152.471l.099-52.493 12.14-1.708c9.463-1.329 13.572 3.862 13.548 16.986l-.025 14.171c-.025 14.7-6.103 20.279-16.044 21.683l-9.718 1.361Zm13.013-80.547-39.557 5.571-.338 183.735 26.693-3.756.148-78.739 9.224-1.296c12.132-1.709 16.735 3.153 16.702 20.213l-.065 33.592c-.025 14.956.938 17.712 2.388 22.227l27.178-3.829c-2.66-6.447-2.891-12.975-2.874-21.897l.057-32.289c.042-20.733-4.307-33.765-17.641-36.349v-.528c11.901-6.925 17.501-19.776 17.534-38.685l.025-11.282c.05-28.352-11.81-40.584-39.474-36.688ZM777.917 59.107l-26.693 3.763-.337 183.726 26.692-3.755.338-183.734ZM883.714 44.209l-24.51 3.45-17.987 146.857-17.443-141.864-26.931 3.788 25.374 180.111 35.439-4.993 26.058-187.35ZM921.088 161.749l12.066-94.34 11.958 90.956-24.024 3.384Zm31.288-127.214-36.155 5.093-28.002 187.63 24.749-3.483 4.678-36.605 30.818-4.341 4.546 35.309 26.693-3.756-27.327-179.847ZM1025.42 24.251l-26.693 3.756-.346 183.734 70.619-9.946.05-26.246-43.93 6.182.3-157.48Z" fill="#fff"/><path d="m369.258 202.062-104.53 14.723c-2.581.361-4.938 2.28-6.079 4.949l-9.937 23.108c-2.227 5.18 1.04 10.415 6.059 9.707l114.426-16.118c2.608-.368 4.999-2.328 6.126-5.037l4.802-11.531c.883-2.11.883-4.431.014-6.296l-4.761-10.183c-1.128-2.403-3.512-3.69-6.12-3.322Z" fill="url(#a)"/><path d="M270.114 222.932c-3.341.469-5.121 2.879-5.128 6.595-.007 2.703.958 4.52 3.824 6.855 2.242 1.81 2.989 2.92 2.989 4.873 0 1.757-.72 2.464-1.814 2.621-1.087.157-1.773-.354-1.773-2.042v-1.62l-3.246.456v1.348c-.007 3.784 1.677 5.704 5.046 5.234 3.376-.476 5.183-2.886 5.189-6.739.007-2.933-.923-4.73-3.789-7.065-2.242-1.811-3.023-2.913-3.023-4.635 0-1.627.666-2.355 1.752-2.512 1.094-.157 1.719.402 1.712 2.09v1.218l3.24-.456v-.98c.007-3.785-1.644-5.711-4.979-5.241ZM288.494 220.679l-3.43.483-.021 9.618-3.681.517.013-9.618-3.43.483-.047 23.627 3.437-.484.02-10.632 3.681-.517-.02 10.632 3.437-.483.041-23.626ZM296.752 240.098c-1.093.157-1.779-.388-1.772-2.083l.027-12.892c0-1.688.693-2.43 1.786-2.579 1.094-.157 1.78.388 1.773 2.082l-.027 12.892c-.007 1.689-.693 2.424-1.787 2.58Zm.041-20.924c-3.369.477-5.216 2.893-5.223 6.671l-.02 12.422c-.007 3.785 1.834 5.684 5.202 5.207 3.376-.476 5.217-2.893 5.224-6.677l.02-12.422c.007-3.778-1.834-5.677-5.203-5.201ZM308.51 228.486l.013-7.256 1.624-.231c1.093-.157 1.684.306 1.684 1.987l-.007 2.804c0 1.689-.598 2.315-1.691 2.471l-1.623.225Zm1.637-10.864-5.054.715-.041 23.626 3.43-.483.021-9.618 1.623-.231c3.43-.484 5.121-2.778 5.128-6.562l.007-2.328c0-3.778-1.678-5.602-5.114-5.119ZM334.421 214.205l-3.056.429-.027 14.151-3.437-13.661-4.245.599-.041 23.626 3.057-.428.034-17.249 4.211 16.65 3.464-.49.04-23.627ZM342.681 233.632c-1.094.156-1.78-.388-1.773-2.083l.027-12.892c0-1.688.693-2.43 1.786-2.58 1.094-.156 1.78.388 1.773 2.083l-.027 12.892c0 1.688-.693 2.423-1.786 2.58Zm.04-20.931c-3.368.476-5.216 2.893-5.223 6.671l-.02 12.422c-.007 3.785 1.834 5.684 5.203 5.207 3.375-.476 5.216-2.893 5.223-6.677l.02-12.423c.007-3.771-1.827-5.676-5.203-5.2ZM366.656 209.665l-2.968.422-1.589 18.712-1.617-18.262-3.749.53-1.691 18.726-1.521-18.276-3.308.463 2.173 23.32 4.551-.64 1.623-16.466 1.562 16.016 4.273-.605 2.261-23.94Z" fill="#fff"/><path d="M362.139.194 21.504 48.167C9.794 49.816.285 61.42.258 74.094L0 213.81c-.02 12.667 9.455 21.598 21.157 19.95l340.636-47.973c8.178-1.151 15.635-7.284 19.167-15.765l30.884-74.194c2.757-6.623 2.771-13.872.034-19.719l-30.619-65.528C377.754 3.086 370.31-.957 362.139.194Z" fill="url(#b)"/><path d="m131.522 49.243-19.616 2.764-.17 90.7-22.047-87.57-27.216 3.833-.278 151.525 19.615-2.763.204-110.617L109.026 203.9l22.21-3.131.286-151.525ZM212.959 37.774l-60.029 8.454-.285 151.525 60.035-8.454.041-21.646-38.022 5.357.088-46.544 30.218-4.254.041-21.646-30.218 4.254.075-40.05 38.022-5.35.034-21.646ZM331.032 21.145l-19.011 2.675-10.229 120.037-10.385-117.13-24.01 3.376-10.833 120.125-9.781-117.219-21.218 2.988 13.93 149.524 29.22-4.111 10.398-105.56 10.018 102.681 27.413-3.86 14.488-153.526ZM392.785 76.49c-7.308 1.028-13.251 8.27-13.265 16.18-.013 7.91 5.903 13.484 13.211 12.456 7.315-1.027 13.251-8.27 13.265-16.18.013-7.915-5.902-13.49-13.211-12.456Z" fill="#fff"/><path d="M412.781 37.985a30.42 30.42 0 0 0-6.398 1.647c-2.235.844-3.545 3.533-2.839 5.779.523 1.66 2.017 2.58 3.654 2.348.238-.034.482-.095.727-.177a23.637 23.637 0 0 1 4.53-1.11c11.778-1.66 21.646 6.331 22.428 18.535.815 12.777-8.66 25.342-21.171 28.058-.564.123-1.128.225-1.685.3-4.204.592-8.171-.048-11.567-1.668-1.012-.484-2.139-.64-3.28-.477a7.114 7.114 0 0 0-2.228.722c-2.547 1.32-3.124 5.017-1.026 6.541 4.11 2.982 9.02 4.615 14.23 4.738a27.825 27.825 0 0 0 4.503-.266c3.729-.524 7.444-1.797 10.949-3.77 4.91-2.771 9.23-6.821 12.531-11.736 3.301-4.92 5.461-10.53 6.262-16.281.802-5.752.218-11.436-1.691-16.473-1.908-5.037-5.087-9.264-9.19-12.245-4.109-2.981-9.019-4.615-14.229-4.73a27.863 27.863 0 0 0-4.51.265Z" fill="url(#c)"/><defs><linearGradient id="a" x1="240.175" y1="196.619" x2="401.649" y2="207.1" gradientUnits="userSpaceOnUse"><stop stop-color="#DA458F"/><stop offset="1" stop-color="#DA34DD"/></linearGradient><linearGradient id="b" x1="-24.392" y1="-23.928" x2="480.02" y2="-.976" gradientUnits="userSpaceOnUse"><stop stop-color="#DA458F"/><stop offset="1" stop-color="#DA34DD"/></linearGradient><linearGradient id="c" x1="389.693" y1="31.012" x2="450.855" y2="32.215" gradientUnits="userSpaceOnUse"><stop stop-color="#DA458F"/><stop offset="1" stop-color="#DA34DD"/></linearGradient></defs></svg>