<svg width="424" height="157" fill="none" xmlns="http://www.w3.org/2000/svg"><path fill-rule="evenodd" clip-rule="evenodd" d="M50.818 15.044c-.82.038-1.933 1.521-2.804 1.585-2.037.14-3.653-1.268-5.817-.361-1.909.792-3.892 2.99-5.84 3.552-1.446.421-1.984 1.035-2.983 1.584-2.932 1.598-5.072 1.008-6.81 5.126-2.279 2.787-4.903 4.5-6.912 7.082-.32.409-.858.242-.974.396-5.118 6.494-.073 3.81-5.706 8.591-.753 2.328-1.493 5.691-2.746 8.62-.55 1.316-1.535 2.198-1.995 3.541-1.687 4.923-1.63 11.062-4.048 14.86-.268 1.227.027 1.534.015 2.353-1.374 9.732-1.738 17.892-3.23 25.45.709 4.375-.286 9.554.167 13.698.271 2.571 1.183 4.963 1.646 7.432.528 2.814 1.21 4.95 1.584 7.815-.408 2.942.695 3.416.594 5.871 1.194 1.728 1.939 4.184 3.158 5.847 0 .972.27 1.535.143 2.737.578 1.164.873 2.008 1.066 2.661.296 1.036.334 1.305.655 2.034.116.268 1.271 2.981 2.412 2.879.73-.064.882-1.215 1.472-1.253 1.05-.063.503 3.658 3.86 4.53 1.512.384 3.434.117 5.035-.266a.41.41 0 0 0 .205.051c.359-.025.512-.69.948-.447.104 1.855 1.273 5.27 2.733 5.079.5-.064 1.702-2.634 2.854-3.145 1.704-.766 2.77 2.534 4.294 1.934.705-.281 1.715-2.583 2.483-3.145 1.997-1.457 5.547-.739 6.97-.035.999.499 1.257 2.022 2 2.009.102 0 .18-.038.269-.064 1.255-.472 1.933-1.495 2.599-1.878.691-.397 2.28-.626 6.072.016 3.306.641 5.062.399 6.073.016.692-.256 1.23-.665 3.599-1.789.422-.205.78-.371 1.024-.473 2.347 2.214 5.43-1.89 7.93-1.607.499.064 1 .832 1.537.768.884-.089 2.215-1.431 3.406-1.968 2.037-.932 3.702-.855 5.418-1.979 1.912 3.748 4.33-.868 6.354-.816.755.014 1.346 1.229 2.204 1.165.73-.05 1.588-1.226 2.37-1.188.78.026 1.435 1.229 2.217 1.153.576-.051 1.126-.844 1.588-.793.602.077.86.986 1.538.781.704-.229 1.6-1.764 2.304-1.968 2.6-.779 5.1.668 7.864-2.388 3.961 2.19 8.236-1.965 12.966.327 1.37-.869 2.382-1.495 3.599-.804.333-.307.46-1.24.909-1.176 2.486.999 5.712-2.465 8.237-1.211.153-.46.332-.895.537-1.176 3.499 1.639 8.226 1.603 11.478-.838 2.026 1.817 4.996-.586 7.815-.827 1.332-.115 2.486.883 3.792.372 2.549-.996 5.599-.163 8.007-.827.717-.191 1.549-1.355 2.253-1.572 1.281-.408 2.448.641 3.844-.023 5.378-2.53 11.004-1.363 15.462-1.642 1.371-.089 2.727-1.431 4.328-1.98 2.651-.907 5.011 1.026 7.649.349.666-.166 1.396-.984 2.01-1.188 1.589-.511 2.947.155 4.587-.023 3.984-.42 8.261-2.835 11.734-1.235 5.11-2.862 11.939-2.462 17.524-3.226 1.535-2.212 2.472-.447 3.778-.804 4.074-1.085 9.452-3.819 13.374-2.423 17.931-4.851 35.855-4.33 53.659-9.666 1.129 1.535 3.357.372 4.701-.817.116.998.91.896 1.474 1.165 2.509-2.736 4.945-.803 7.75-1.607 1.035-2.583 2.421-.766 3.713-2.761.244 1.369-.755 1.24-.114 1.957 2.392-4.718 8.069-2.938 10.912-4.356-.18 0-.129-.691.114-.78.488 1.113 1.114-1.202 1.831-1.176 4.932-.816 9.014-5.584 13.394-7.5.436.614 1.553 2.495 2.269.768-.718-.23-1.679-.039-1.36-1.944 1.166.55 2.92-.408 3.957-1.98 1.562-.268 2.217.691 3.791-.804.333.012-.053-1.97.652-1.957 2.025.87 3.33-.868 5.137-.023.806-1.841 3.15-2.518 3.714-1.584.742-.818-.488-1.47.114-1.957 1.831-.677 3.56-1.532 5.009-.42.511-.868.933-2.045 1.637-2.352.461-.153-.37 1.778.373 1.165.768-1.062-.232-1.766.099-3.134.961-.69.921-1.636 1.51-2.749 1.077.998 2.215-1.252 3.406-1.968 1.242-.754 2.421-.165 3.599-.804 1.012-.55 1.6-1.93 2.676-1.968.871-.038 1.41 1.331 2.397 1.153.55-.358-.143-1.433.6-1.56 3.459-.677 6.917-1.365 9.759-3.96-4.263 3.297-6.623.214-10.361 3.179-.271-1.727-1.665 1.189-1.846-1.165-.371 1.023.321 1.688-.422 1.573-.231-.128-.269-.563-.679-.397.767-2.122.049-2.085-.029-3.517-2.882.293-5.264 1.404-7.75 1.607-.524.525.155 1.177-.421 1.56-.986.41-1.678.153-2.869.805-.117-1.535-.771-2.252-.094-4.31 3.331-.063 8.299-3.411 12.321-3.984 1.217-.166 2.256 1.33 3.292-1.188-1.895.869-2.961-1.78-4.473-1.934-1.961-.193-4.456 2.402-6.34 1.992-.538-.115-.667-.819-1.167-.768-.397.026-1.216 1.227-1.639 1.189-.461-.052-.385-.896-.795-.78-.858.229-1.689 1.559-2.612 1.57-1.55.013-2.871-1.356-4.651-.756-.219-.678.151-2.417.587-2.75 2.011-.024 2.37-.14 4.458-.42-.205-.166-.295-.498-.194-1.176.628.077.783.55 1.345-.396-1.55.178-1.002-2.865-.286-4.297 3.742.296 8.621-1.377 11.62-.455.461-.856.831-1.969 1.446-2.352 3.676-1.2 7.494-.444 11.413-1.619-4.012-2.061-8.712-.4-13.874.85-.141-.358.153-1.445-.372-1.177-2.293 1.24-4.753 1.098-6.469 1.595a103.83 103.83 0 0 1-1.44-5.078c-5.469 1.75-8.37-4.928-13.418-4.624.191-1.19-.155-1.522-.194-2.34.537-.998.984-2.277 1.56-3.146.833-.128 1.767-.818 2.383-.012 4.724-3.758 10.427-1.644 15.985-3.995.908-1.994.612-3.453.393-5.09-2.397-.973-5.098 1.903-7.457-.349-.338-4.553 1.12-7.84 3.233-8.235 3.51-.638 9.404-.558 11.557-.058 10.502-3.358 20.406-2.854 31.075-5.637-5.65-.527-11.323 2.258-16.257.861-.101.857-.332 1.241-.729 1.177-5.022-.156-10.659.25-15.334 2.038-1.488-2.712-5.546.829-7.048-1.922 1.072-4.476 2.902-6.598 5.015-7.85-2.024.382-3.691-.974-5.331-1.142-1.345-.14-3.893 1.341-4.458.42-.141-.23.307-1.15-.001-1.176.551.038-1.037.306-1.165.395-.82.563-.73.883-1.588.793-1.115-.116-1.077-.18-1.654-1.165-3.831-.463-7.827 1.147-11.607.454-.397-.064-1.23.05-1.281.012-.334-.256.088-1.049-.373-1.164-.269-.064-.268.857-.665.78-1.474-.27-3.165-.552-4.715-.36-3.856.483-8.226-.325-11.377.057-.654-.243.447-1.637-.501-1.56A151.187 151.187 0 0 0 327.5 2.63c-.41-.116.165-1.855-.501-1.561-.756-.243-.818 1.65-1.51 1.572-.372-.486-.706-1.049-.809-1.957-6.394-1.04-13.4.978-20.279 2.061-6.418 1.007-12.759 1.362-18.818 2.062-4.779.548-9.53 2.49-13.618 1.63-5.866 1.673-10.773 1.888-16.115 2.435-3.856.381-7.956-.26-11.299.838-.576.191-1.357 1.137-2.01 1.188-.974.077-1.782-1.203-2.756-1.152-2.639.113-5.558 1.915-8.172 2.003-2.946.101-5.739.01-8.622.047-1.627.025-3.368 1.392-5.008 1.583-1.089.14-2.063-.858-3.178-.769-3.138.254-6.544 2.171-9.453 2.003-3.882-.22-7.714-1.68-11.978.454-4.28-.77-9.661-.49-13.99.466-3.014-2.905-7.033.534-10.826.058-.397-.05-.59-.64-.987-.78-5.575-1.96-12.681 2.628-17.167.873-2.074 2.16-3.293-.002-4.895-.36-1.73-.398-3.573 1.06-5.315 1.199-.564.05-.975-.704-1.538-.768-1.705-.193-3.587 1.213-5.546 1.583-2.934.561-5.525-2.625-9.11-.337-2.346-1.306-5.896-2.753-9.058-.734-4.525-2.637-9.967 1.094-14.849.081-1.653-.346-2.923-2.329-4.895-.36-.487-.64-1.051-.935-1.666-1.05-1.666-.295-3.523.113-4.279.292-7.647 1.863-11.748.761-16.755 3.048-5.48 2.504-6.656 6.609-7.565 6.493-.27-.038-.27-.41-.219-.767 1.956-4.732 2.019-5.716 1.712-5.755-.949-.09-5.937 8.758-7.372 8.655-.82-.064-.13-2.993.559-5.423-.806 1.42-1.382 2.136-1.715 2.123-.461-.014-.463-1.433-.004-4.272-1.026-1.267-2.268-.385-3.548.407-1.27-.806-1.709-4.771-3.528-4.696ZM370.54 77.896c-.102.46-.063.704.065.78-.651 1.906-1.141-.78-.065-.78Zm.487-.78c1.562-.255 3.956-2.16 4.88-.803.295-.013.036-2.213.587-2.737.526.934 1.206 1.612 2.333 1.55-.368 3.235-2.356 1.443-2.84 4.32-.833-.217-1.23-.333-1.831 1.176-1.628-.973-2.292 1.048-3.485.011.613-1.88-.04-1.407.356-3.517Z" fill="url(#a)"/><defs><linearGradient id="a" x1=".877" y1=".227" x2="424" y2="2.373" gradientUnits="userSpaceOnUse"><stop stop-color="#DD5AFE"/><stop offset="1" stop-color="#6366F1"/></linearGradient></defs></svg>